<svg width="100" height="100" viewBox="0 0 100 100" fill="none" xmlns="http://www.w3.org/2000/svg">
<path d="M53.6987 77.841L55.7948 83H45.1834L47.2795 77.841V26.5778H45.5328L38 33.1735V17L45.5328 19.0897H55.4454L63 17V33.1735L55.4454 26.5778H53.6987V77.841Z" fill="url(#paint0_linear_26_94)"/>
<path fill-rule="evenodd" clip-rule="evenodd" d="M85.3555 14.6445L100 50L85.3555 85.3555L50 100L14.6445 85.3555L0 50L14.6445 14.6445L50 0L85.3555 14.6445ZM18.1807 18.1807L5 50L18.1807 81.8193L50 95L81.8193 81.8193L95 50L81.8193 18.1807L50 5L18.1807 18.1807Z" fill="url(#paint1_linear_26_94)"/>
<defs>
<linearGradient id="paint0_linear_26_94" x1="50" y1="100" x2="50" y2="0" gradientUnits="userSpaceOnUse">
<stop stop-color="#F0D07F"/>
<stop offset="1" stop-color="#B58E4F"/>
</linearGradient>
<linearGradient id="paint1_linear_26_94" x1="50" y1="100" x2="50" y2="0" gradientUnits="userSpaceOnUse">
<stop stop-color="#F0D07F"/>
<stop offset="1" stop-color="#B58E4F"/>
</linearGradient>
</defs>
</svg>
